HIERARCHY
ROOT Hips
{
	OFFSET 0.000000 0.000000 0.000000 
	CHANNELS 6 Xposition Yposition Zposition Zrotation Yrotation Xrotation
	JOINT LeftUpLeg
	{
		OFFSET 1.363060 -1.794630 0.839290 
		CHANNELS 3 Zrotation Yrotation Xrotation
		JOINT LeftLeg
		{
			OFFSET 2.448110 -6.726130 0.000000 
			CHANNELS 3 Zrotation Yrotation Xrotation
			JOINT LeftFoot
			{
				OFFSET 2.562200 -7.039590 0.000000 
				CHANNELS 3 Zrotation Yrotation Xrotation
				JOINT LeftToeBase
				{
					OFFSET 0.157640 -0.433110 2.322550 
					CHANNELS 3 Zrotation Yrotation Xrotation
					End Site
					{
						OFFSET 0.000000 0.000000 0.000000 
					}
				}
			}
		}
	}
	JOINT RightUpLeg
	{
		OFFSET -1.305520 -1.794630 0.839290 
		CHANNELS 3 Zrotation Yrotation Xrotation
		JOINT RightLeg
		{
			OFFSET -2.542530 -6.985550 0.000000 
			CHANNELS 3 Zrotation Yrotation Xrotation
			JOINT RightFoot
			{
				OFFSET -2.568260 -7.056230 0.000000 
				CHANNELS 3 Zrotation Yrotation Xrotation
				JOINT RightToeBase
				{
					OFFSET -0.164730 -0.452590 2.363150 
					CHANNELS 3 Zrotation Yrotation Xrotation
					End Site
					{
						OFFSET 0.000000 0.000000 0.000000 
					}
				}
			}
		}
	}
	JOINT Spine
	{
		OFFSET 0.028270 2.035590 -0.193380 
		CHANNELS 3 Zrotation Yrotation Xrotation
		JOINT Spine1
		{
			OFFSET 0.056720 2.048850 -0.042750 
			CHANNELS 3 Zrotation Yrotation Xrotation
			JOINT Neck1
			{
				OFFSET -0.054170 1.746240 0.172020 
				CHANNELS 3 Zrotation Yrotation Xrotation
				JOINT Head
				{
					OFFSET 0.104070 1.761360 -0.123970 
					CHANNELS 3 Zrotation Yrotation Xrotation
					End Site
					{
						OFFSET 0.000000 0.000000 0.000000 
					}
				}
			}
			JOINT LeftArm
			{
				OFFSET 3.362410 1.200890 -0.311210 
				CHANNELS 3 Zrotation Yrotation Xrotation
				JOINT LeftForeArm
				{
					OFFSET 4.983000 -0.000000 -0.000000 
					CHANNELS 3 Zrotation Yrotation Xrotation
					JOINT LeftHand
					{
						OFFSET 3.483560 -0.000000 -0.000000 
						CHANNELS 3 Zrotation Yrotation Xrotation
						JOINT LeftHandIndex1
						{
							OFFSET 0.715260 -0.000000 -0.000000 
							CHANNELS 3 Zrotation Yrotation Xrotation
							End Site
							{
								OFFSET 0.000000 0.000000 0.000000 
							}
						}
					}
				}
			}
			JOINT RightArm
			{
				OFFSET -3.136600 1.374050 -0.404650 
				CHANNELS 3 Zrotation Yrotation Xrotation
				JOINT RightForeArm
				{
					OFFSET -5.241900 -0.000000 -0.000000 
					CHANNELS 3 Zrotation Yrotation Xrotation
					JOINT RightHand
					{
						OFFSET -3.444170 -0.000000 -0.000000 
						CHANNELS 3 Zrotation Yrotation Xrotation
						JOINT RightHandIndex1
						{
							OFFSET -0.622530 -0.000000 -0.000000 
							CHANNELS 3 Zrotation Yrotation Xrotation
							End Site
							{
								OFFSET 0.000000 0.000000 0.000000 
							}
						}
					}
				}
			}
		}
	}
}
MOTION
Frames: 15
Frame Time: 0.041667
8.062349 17.532420 27.731539 -6.886946 -80.499143 23.048467 -7.219253 -1.669745 0.955111 -4.668458 -0.866621 3.519729 -0.106908 6.767580 24.100027 0.000000 0.000000 0.000000 22.947457 24.973441 -9.559768 4.534716 -9.931300 18.533364 7.321625 -24.283712 -5.361193 -0.141200 2.421500 -6.671900 0.863254 1.447173 -5.135486 -3.079795 0.569662 5.866616 8.675992 -0.018816 12.430012 0.645500 0.999200 12.557400 -76.371585 5.194609 43.743395 14.154477 -18.749941 -3.534855 -1.877894 -2.154429 -41.477876 -7.125000 0.000000 0.000000 36.171403 12.555641 -16.443452 -133.108241 45.814057 -102.002092 -2.032737 0.798674 -27.886997 7.125000 0.000000 0.000000 
8.063127 17.532420 27.732318 -6.868736 -80.494622 23.029624 -7.219057 -1.669824 0.955383 -4.668453 -0.866800 3.519820 -0.106808 6.767401 24.100091 0.000000 0.000000 0.000000 22.942991 24.989995 -9.556351 4.534174 -9.931869 18.533651 7.328723 -24.302847 -5.373154 -0.140800 2.418200 -6.662900 0.862780 1.429624 -5.138903 -3.109766 0.556918 5.864189 8.679545 -0.014452 12.506851 0.646500 1.008000 12.607300 -76.349427 5.238362 43.771176 14.165281 -18.768070 -3.540774 -1.873342 -2.160283 -41.552793 -7.125000 0.000000 0.000000 36.191308 12.309018 -15.826257 -132.454163 46.223347 -101.611934 -2.100358 1.032994 -20.425861 7.125000 0.000000 0.000000 
8.064017 17.532308 27.733096 -6.848860 -80.494234 23.006646 -7.219064 -1.669832 0.955386 -4.668457 -0.866833 3.519827 -0.106683 6.767373 24.100098 0.000000 0.000000 0.000000 22.938832 25.003760 -9.552064 4.533132 -9.932766 18.535408 7.335246 -24.320295 -5.378923 -0.140800 2.418500 -6.663700 0.861186 1.414305 -5.141467 -3.139457 0.544730 5.866719 8.689168 -0.019248 12.592181 0.650500 1.014600 12.669100 -76.313747 5.272388 43.833763 14.174848 -18.784466 -3.546206 -1.868186 -2.167531 -41.666825 -7.125000 0.000000 0.000000 36.234632 12.010532 -15.228576 -131.560830 46.782640 -101.037668 -2.140665 1.286162 -11.865065 7.125000 0.000000 0.000000 
8.064906 17.532086 27.733763 -6.827376 -80.495453 22.980583 -7.219187 -1.669800 0.955236 -4.668465 -0.866781 3.519785 -0.106543 6.767432 24.100073 0.000000 0.000000 0.000000 22.934612 25.013760 -9.548208 4.531926 -9.933792 18.538311 7.340435 -24.333913 -5.381526 -0.141000 2.420100 -6.668100 0.857200 1.405826 -5.143015 -3.173198 0.535364 5.873022 8.706078 -0.038210 12.681477 0.658500 1.016600 12.739000 -76.261521 5.296894 43.941000 14.184948 -18.801304 -3.551865 -1.862861 -2.176886 -41.820285 -7.125000 0.000000 0.000000 36.289532 11.693548 -14.804432 -130.443880 47.465888 -100.287425 -2.149997 1.533895 -2.927329 7.125000 0.000000 0.000000 
8.066018 17.531975 27.734430 -6.813767 -80.500554 22.960323 -7.219471 -1.669707 0.954871 -4.668480 -0.866608 3.519673 -0.106401 6.767617 24.100003 0.000000 0.000000 0.000000 22.931233 25.009152 -9.546794 4.530724 -9.934429 18.541925 7.341600 -24.336188 -5.372987 -0.142300 2.431400 -6.699400 0.851647 1.404538 -5.143327 -3.213449 0.529388 5.883768 8.731295 -0.068588 12.771123 0.669800 1.015200 12.812800 -76.225830 5.287418 43.945420 14.165180 -18.773388 -3.541655 -1.861147 -2.177517 -41.871389 -7.125000 0.000000 0.000000 36.340844 11.402379 -14.648459 -129.130345 48.232367 -99.387783 -2.128496 1.767761 5.773778 7.125000 0.000000 0.000000 
8.067130 17.531752 27.734986 -6.807331 -80.508094 22.945950 -7.219838 -1.669584 0.954398 -4.668498 -0.866369 3.519524 -0.106263 6.767868 24.099910 0.000000 0.000000 0.000000 22.929273 25.004312 -9.544237 4.529668 -9.934558 18.544646 7.341771 -24.335969 -5.363625 -0.143700 2.442900 -6.731200 0.844477 1.410300 -5.142500 -3.261588 0.527029 5.897810 8.764839 -0.110389 12.857794 0.684200 1.010300 12.887000 -76.205247 5.248335 43.855741 14.119091 -18.706088 -3.517249 -1.863653 -2.170129 -41.826708 -7.125000 0.000000 0.000000 36.372155 11.174764 -14.804897 -127.681514 49.025925 -98.390773 -2.075687 1.984888 13.715726 7.125000 0.000000 0.000000 
8.068354 17.531641 27.735542 -6.808128 -80.517349 22.937845 -7.220177 -1.669471 0.953962 -4.668515 -0.866147 3.519385 -0.106136 6.768103 24.099823 0.000000 0.000000 0.000000 22.928064 24.999985 -9.540738 4.528880 -9.934025 18.545766 7.341867 -24.335516 -5.352202 -0.145400 2.457000 -6.770500 0.835777 1.422668 -5.140939 -3.312264 0.528565 5.912540 8.805210 -0.159132 12.937391 0.701800 1.003000 12.955700 -76.176928 5.205168 43.789948 14.073862 -18.640528 -3.493512 -1.866773 -2.164524 -41.796196 -7.125000 0.000000 0.000000 36.369848 11.029304 -15.237377 -126.199971 49.780623 -97.375706 -1.990141 2.186805 20.461517 7.125000 0.000000 0.000000 
8.069688 17.531530 27.735876 -6.803672 -80.528955 22.924655 -7.220477 -1.669375 0.953583 -4.668530 -0.865955 3.519261 -0.106008 6.768307 24.099749 0.000000 0.000000 0.000000 22.924119 24.986907 -9.541224 4.528240 -9.933417 18.546749 7.338953 -24.326537 -5.332959 -0.147300 2.473300 -6.815700 0.826057 1.439683 -5.138622 -3.364531 0.533038 5.928908 8.851350 -0.210835 13.008078 0.722400 0.994500 13.016700 -76.145585 5.158231 43.734508 14.029077 -18.575790 -3.470142 -1.870799 -2.159406 -41.768049 -7.125000 0.000000 0.000000 36.332140 10.973704 -15.851621 -124.806160 50.439664 -96.427397 -1.875497 2.368954 25.672937 7.125000 0.000000 0.000000 
8.071023 17.531419 27.736210 -6.813931 -80.542638 22.924886 -7.220718 -1.669298 0.953279 -4.668543 -0.865800 3.519159 -0.105906 6.768474 24.099689 0.000000 0.000000 0.000000 22.922023 24.972256 -9.542062 4.527689 -9.932824 18.548044 7.334192 -24.312753 -5.312475 -0.149100 2.488500 -6.857700 0.818694 1.456332 -5.136304 -3.399375 0.538926 5.943157 8.900616 -0.257081 13.068584 0.748500 0.986000 13.066800 -76.119287 5.121480 43.724520 13.995194 -18.527934 -3.452792 -1.874699 -2.158197 -41.783614 -7.125000 0.000000 0.000000 36.253678 10.990392 -16.527099 -123.620807 50.961654 -95.632203 -1.736387 2.534210 29.132243 7.125000 0.000000 0.000000 
8.072468 17.531308 27.736321 -6.819638 -80.559149 22.920093 -7.220922 -1.669237 0.953023 -4.668554 -0.865669 3.519074 -0.105812 6.768614 24.099638 0.000000 0.000000 0.000000 22.919298 24.964460 -9.541719 4.527246 -9.932618 18.549319 7.329243 -24.298661 -5.295116 -0.150300 2.498500 -6.885500 0.815549 1.467637 -5.134303 -3.407027 0.544052 5.954793 8.949683 -0.289653 13.119635 0.780000 0.979900 13.106300 -76.104547 5.099823 43.767136 13.976740 -18.503505 -3.443799 -1.876862 -2.161895 -41.852930 -7.125000 0.000000 0.000000 36.142753 11.054844 -17.145471 -122.741443 51.326449 -95.053262 -1.590755 2.675954 30.780558 7.125000 0.000000 0.000000 
8.074025 17.531085 27.736321 -6.825323 -80.577996 22.913357 -7.221201 -1.669150 0.952664 -4.668567 -0.865480 3.518957 -0.105725 6.768812 24.099564 0.000000 0.000000 0.000000 22.916774 24.954509 -9.541368 4.526545 -9.932590 18.551598 7.323373 -24.282284 -5.273734 -0.151400 2.507100 -6.909200 0.817972 1.471797 -5.132572 -3.385327 0.547101 5.964939 8.995700 -0.305810 13.161051 0.815500 0.976700 13.136100 -76.124054 5.075040 43.771563 13.954186 -18.472866 -3.432584 -1.880229 -2.162792 -41.888022 -7.125000 0.000000 0.000000 36.015170 11.130719 -17.613269 -122.231591 51.528680 -94.730780 -1.461164 2.791218 30.756844 7.125000 0.000000 0.000000 
8.075693 17.530752 27.736098 -6.831322 -80.596999 22.905496 -7.221540 -1.669039 0.952219 -4.668582 -0.865243 3.518816 -0.105651 6.769058 24.099472 0.000000 0.000000 0.000000 22.916135 24.946228 -9.539434 4.525918 -9.932774 18.554803 7.317256 -24.265183 -5.254219 -0.151900 2.511600 -6.921700 0.825106 1.468876 -5.131254 -3.336200 0.547826 5.973564 9.035225 -0.306196 13.193454 0.853000 0.976200 13.157800 -76.157410 5.056749 43.807901 13.941272 -18.456650 -3.426503 -1.883106 -2.166275 -41.950441 -7.125000 0.000000 0.000000 35.891855 11.187916 -17.878804 -122.123409 51.570630 -94.680290 -1.385775 2.864840 29.373225 7.125000 0.000000 0.000000 
8.077472 17.530418 27.735876 -6.852072 -80.617424 22.910147 -7.221998 -1.668880 0.951608 -4.668601 -0.864909 3.518625 -0.105601 6.769401 24.099343 0.000000 0.000000 0.000000 22.918213 24.936801 -9.536168 4.525317 -9.932748 18.558255 7.309226 -24.243245 -5.233531 -0.152100 2.513400 -6.926900 0.834669 1.463671 -5.129556 -3.271676 0.547649 5.985578 9.064026 -0.295597 13.216927 0.886200 0.977700 13.173500 -76.193199 5.038031 43.875278 13.936224 -18.451881 -3.424547 -1.884632 -2.171553 -42.027181 -7.125000 0.000000 0.000000 35.792928 11.210947 -17.925631 -122.395811 51.461519 -94.888337 -1.383695 2.888771 26.963222 7.125000 0.000000 0.000000 
8.079252 17.530196 27.735654 -6.890318 -80.637356 22.930572 -7.222586 -1.668667 0.950814 -4.668624 -0.864469 3.518378 -0.105580 6.769849 24.099174 0.000000 0.000000 0.000000 22.924473 24.930998 -9.529476 4.525050 -9.932326 18.561268 7.301129 -24.221602 -5.217258 -0.151900 2.511500 -6.921400 0.845105 1.457957 -5.127376 -3.206095 0.546769 6.001804 9.082294 -0.278019 13.231375 0.912600 0.980700 13.183900 -76.239606 5.002152 43.890206 13.920433 -18.430547 -3.416927 -1.887569 -2.171620 -42.034758 -7.125000 0.000000 0.000000 35.727926 11.201468 -17.777962 -122.996987 51.215548 -95.318194 -1.454284 2.855742 23.830986 7.125000 0.000000 0.000000 
8.081253 17.529973 27.735320 -6.939580 -80.655838 22.961653 -7.223214 -1.668435 0.949963 -4.668648 -0.863994 3.518115 -0.105586 6.770333 24.098993 0.000000 0.000000 0.000000 22.932548 24.924753 -9.522043 4.525027 -9.931266 18.563226 7.292923 -24.199685 -5.201742 -0.151500 2.508000 -6.911900 0.854179 1.456473 -5.124682 -3.144021 0.547452 6.021640 9.088040 -0.257798 13.236179 0.929200 0.984100 13.188800 -76.265244 4.967535 43.969566 13.917943 -18.428493 -3.416274 -1.888184 -2.175343 -42.076797 -7.125000 0.000000 0.000000 35.695647 11.169106 -17.484579 -123.876911 50.842433 -95.933461 -1.577691 2.763968 20.104344 7.125000 0.000000 0.000000 
